<mxfile host="app.diagrams.net" agent="Mozilla/5.0 (Windows NT 10.0; Win64; x64) AppleWebKit/537.36 (KHTML, like Gecko) Chrome/129.0.0.0 Safari/537.36 Avast/129.0.0.0" version="24.8.1">
  <diagram name="Seite-1" id="W9wErDsdPMXj1tLASiSd">
    <mxGraphModel dx="2261" dy="1915" grid="1" gridSize="10" guides="1" tooltips="1" connect="1" arrows="1" fold="1" page="1" pageScale="1" pageWidth="827" pageHeight="1169" math="0" shadow="0">
      <root>
        <mxCell id="0" />
        <mxCell id="1" parent="0" />
        <mxCell id="5-AXXgtq8NwjFDfSAPvi-2" value="Waffen" style="rounded=1;whiteSpace=wrap;html=1;" vertex="1" parent="1">
          <mxGeometry x="150" y="370" width="180" height="60" as="geometry" />
        </mxCell>
        <mxCell id="5-AXXgtq8NwjFDfSAPvi-3" value="Rüstung" style="rounded=1;whiteSpace=wrap;html=1;" vertex="1" parent="1">
          <mxGeometry x="460" y="110" width="190" height="70" as="geometry" />
        </mxCell>
        <mxCell id="5-AXXgtq8NwjFDfSAPvi-4" value="Items" style="rounded=1;whiteSpace=wrap;html=1;" vertex="1" parent="1">
          <mxGeometry x="460" y="380" width="190" height="60" as="geometry" />
        </mxCell>
        <mxCell id="5-AXXgtq8NwjFDfSAPvi-6" value="" style="ellipse;whiteSpace=wrap;html=1;" vertex="1" parent="1">
          <mxGeometry x="650" y="510" width="120" height="40" as="geometry" />
        </mxCell>
        <mxCell id="5-AXXgtq8NwjFDfSAPvi-7" value="" style="ellipse;whiteSpace=wrap;html=1;" vertex="1" parent="1">
          <mxGeometry x="490" y="520" width="120" height="40" as="geometry" />
        </mxCell>
        <mxCell id="5-AXXgtq8NwjFDfSAPvi-8" value="" style="ellipse;whiteSpace=wrap;html=1;" vertex="1" parent="1">
          <mxGeometry x="230" y="480" width="120" height="40" as="geometry" />
        </mxCell>
        <mxCell id="5-AXXgtq8NwjFDfSAPvi-9" value="" style="ellipse;whiteSpace=wrap;html=1;" vertex="1" parent="1">
          <mxGeometry x="30" y="460" width="120" height="40" as="geometry" />
        </mxCell>
        <mxCell id="5-AXXgtq8NwjFDfSAPvi-10" value="" style="ellipse;whiteSpace=wrap;html=1;" vertex="1" parent="1">
          <mxGeometry x="600" y="30" width="120" height="40" as="geometry" />
        </mxCell>
        <mxCell id="5-AXXgtq8NwjFDfSAPvi-11" value="" style="ellipse;whiteSpace=wrap;html=1;" vertex="1" parent="1">
          <mxGeometry x="414" y="30" width="120" height="40" as="geometry" />
        </mxCell>
        <mxCell id="5-AXXgtq8NwjFDfSAPvi-77" value="" style="shape=tableRow;horizontal=0;startSize=0;swimlaneHead=0;swimlaneBody=0;fillColor=none;collapsible=0;dropTarget=0;points=[[0,0.5],[1,0.5]];portConstraint=eastwest;top=0;left=0;right=0;bottom=1;" vertex="1" parent="1">
          <mxGeometry x="320" y="930" width="320" height="50" as="geometry" />
        </mxCell>
        <mxCell id="5-AXXgtq8NwjFDfSAPvi-78" value="PK" style="shape=partialRectangle;connectable=0;fillColor=none;top=0;left=0;bottom=0;right=0;fontStyle=1;overflow=hidden;whiteSpace=wrap;html=1;" vertex="1" parent="5-AXXgtq8NwjFDfSAPvi-77">
          <mxGeometry width="30" height="50" as="geometry">
            <mxRectangle width="30" height="50" as="alternateBounds" />
          </mxGeometry>
        </mxCell>
        <mxCell id="5-AXXgtq8NwjFDfSAPvi-79" value="UniqueID" style="shape=partialRectangle;connectable=0;fillColor=none;top=0;left=0;bottom=0;right=0;align=left;spacingLeft=6;fontStyle=5;overflow=hidden;whiteSpace=wrap;html=1;" vertex="1" parent="1">
          <mxGeometry x="-70" y="900" width="290" height="50" as="geometry">
            <mxRectangle width="290" height="50" as="alternateBounds" />
          </mxGeometry>
        </mxCell>
        <mxCell id="5-AXXgtq8NwjFDfSAPvi-80" value="Row 2" style="shape=partialRectangle;connectable=0;fillColor=none;top=0;left=0;bottom=0;right=0;align=left;spacingLeft=6;overflow=hidden;whiteSpace=wrap;html=1;" vertex="1" parent="1">
          <mxGeometry x="269" y="850" width="290" height="30" as="geometry">
            <mxRectangle width="290" height="30" as="alternateBounds" />
          </mxGeometry>
        </mxCell>
        <mxCell id="5-AXXgtq8NwjFDfSAPvi-102" value="Table" style="shape=table;startSize=30;container=1;collapsible=1;childLayout=tableLayout;fixedRows=1;rowLines=0;fontStyle=1;align=center;resizeLast=1;html=1;points=[[0,0,0,0,0],[0,0.25,0,0,0],[0,0.5,0,0,0],[0,0.75,0,0,0],[0,1,0,0,0],[0.25,0,0,0,0],[0.25,1,0,0,0],[0.5,0,0,0,0],[0.5,1,0,0,0],[0.75,0,0,0,0],[0.75,1,0,0,0],[1,0,0,0,0],[1,0.25,0,0,0],[1,0.5,0,0,0],[1,0.75,0,0,0],[1,1,0,0,0]];" vertex="1" parent="1">
          <mxGeometry x="-230" y="-360" width="439" height="390" as="geometry" />
        </mxCell>
        <mxCell id="5-AXXgtq8NwjFDfSAPvi-103" value="" style="shape=tableRow;horizontal=0;startSize=0;swimlaneHead=0;swimlaneBody=0;fillColor=none;collapsible=0;dropTarget=0;points=[[0,0.5],[1,0.5]];portConstraint=eastwest;top=0;left=0;right=0;bottom=1;" vertex="1" parent="5-AXXgtq8NwjFDfSAPvi-102">
          <mxGeometry y="30" width="439" height="30" as="geometry" />
        </mxCell>
        <mxCell id="5-AXXgtq8NwjFDfSAPvi-104" value="PK" style="shape=partialRectangle;connectable=0;fillColor=none;top=0;left=0;bottom=0;right=0;fontStyle=1;overflow=hidden;whiteSpace=wrap;html=1;" vertex="1" parent="5-AXXgtq8NwjFDfSAPvi-103">
          <mxGeometry width="31" height="30" as="geometry">
            <mxRectangle width="31" height="30" as="alternateBounds" />
          </mxGeometry>
        </mxCell>
        <mxCell id="5-AXXgtq8NwjFDfSAPvi-105" value="Charakter ID = INT" style="shape=partialRectangle;connectable=0;fillColor=none;top=0;left=0;bottom=0;right=0;align=left;spacingLeft=6;fontStyle=5;overflow=hidden;whiteSpace=wrap;html=1;" vertex="1" parent="5-AXXgtq8NwjFDfSAPvi-103">
          <mxGeometry x="31" width="408" height="30" as="geometry">
            <mxRectangle width="408" height="30" as="alternateBounds" />
          </mxGeometry>
        </mxCell>
        <mxCell id="5-AXXgtq8NwjFDfSAPvi-124" value="" style="shape=tableRow;horizontal=0;startSize=0;swimlaneHead=0;swimlaneBody=0;fillColor=none;collapsible=0;dropTarget=0;points=[[0,0.5],[1,0.5]];portConstraint=eastwest;top=0;left=0;right=0;bottom=1;" vertex="1" parent="5-AXXgtq8NwjFDfSAPvi-102">
          <mxGeometry y="60" width="439" height="30" as="geometry" />
        </mxCell>
        <mxCell id="5-AXXgtq8NwjFDfSAPvi-125" value="FK" style="shape=partialRectangle;connectable=0;fillColor=none;top=0;left=0;bottom=0;right=0;fontStyle=1;overflow=hidden;whiteSpace=wrap;html=1;" vertex="1" parent="5-AXXgtq8NwjFDfSAPvi-124">
          <mxGeometry width="31" height="30" as="geometry">
            <mxRectangle width="31" height="30" as="alternateBounds" />
          </mxGeometry>
        </mxCell>
        <mxCell id="5-AXXgtq8NwjFDfSAPvi-126" value="Waffen ID = INT" style="shape=partialRectangle;connectable=0;fillColor=none;top=0;left=0;bottom=0;right=0;align=left;spacingLeft=6;fontStyle=5;overflow=hidden;whiteSpace=wrap;html=1;" vertex="1" parent="5-AXXgtq8NwjFDfSAPvi-124">
          <mxGeometry x="31" width="408" height="30" as="geometry">
            <mxRectangle width="408" height="30" as="alternateBounds" />
          </mxGeometry>
        </mxCell>
        <mxCell id="5-AXXgtq8NwjFDfSAPvi-130" value="" style="shape=tableRow;horizontal=0;startSize=0;swimlaneHead=0;swimlaneBody=0;fillColor=none;collapsible=0;dropTarget=0;points=[[0,0.5],[1,0.5]];portConstraint=eastwest;top=0;left=0;right=0;bottom=1;" vertex="1" parent="5-AXXgtq8NwjFDfSAPvi-102">
          <mxGeometry y="90" width="439" height="30" as="geometry" />
        </mxCell>
        <mxCell id="5-AXXgtq8NwjFDfSAPvi-131" value="FK" style="shape=partialRectangle;connectable=0;fillColor=none;top=0;left=0;bottom=0;right=0;fontStyle=1;overflow=hidden;whiteSpace=wrap;html=1;" vertex="1" parent="5-AXXgtq8NwjFDfSAPvi-130">
          <mxGeometry width="31" height="30" as="geometry">
            <mxRectangle width="31" height="30" as="alternateBounds" />
          </mxGeometry>
        </mxCell>
        <mxCell id="5-AXXgtq8NwjFDfSAPvi-132" value="Komplett Rüstung ID = INT" style="shape=partialRectangle;connectable=0;fillColor=none;top=0;left=0;bottom=0;right=0;align=left;spacingLeft=6;fontStyle=5;overflow=hidden;whiteSpace=wrap;html=1;" vertex="1" parent="5-AXXgtq8NwjFDfSAPvi-130">
          <mxGeometry x="31" width="408" height="30" as="geometry">
            <mxRectangle width="408" height="30" as="alternateBounds" />
          </mxGeometry>
        </mxCell>
        <mxCell id="5-AXXgtq8NwjFDfSAPvi-127" value="" style="shape=tableRow;horizontal=0;startSize=0;swimlaneHead=0;swimlaneBody=0;fillColor=none;collapsible=0;dropTarget=0;points=[[0,0.5],[1,0.5]];portConstraint=eastwest;top=0;left=0;right=0;bottom=1;" vertex="1" parent="5-AXXgtq8NwjFDfSAPvi-102">
          <mxGeometry y="120" width="439" height="30" as="geometry" />
        </mxCell>
        <mxCell id="5-AXXgtq8NwjFDfSAPvi-128" value="FK" style="shape=partialRectangle;connectable=0;fillColor=none;top=0;left=0;bottom=0;right=0;fontStyle=1;overflow=hidden;whiteSpace=wrap;html=1;" vertex="1" parent="5-AXXgtq8NwjFDfSAPvi-127">
          <mxGeometry width="31" height="30" as="geometry">
            <mxRectangle width="31" height="30" as="alternateBounds" />
          </mxGeometry>
        </mxCell>
        <mxCell id="5-AXXgtq8NwjFDfSAPvi-129" value="Brust Rüstung ID = INT" style="shape=partialRectangle;connectable=0;fillColor=none;top=0;left=0;bottom=0;right=0;align=left;spacingLeft=6;fontStyle=5;overflow=hidden;whiteSpace=wrap;html=1;" vertex="1" parent="5-AXXgtq8NwjFDfSAPvi-127">
          <mxGeometry x="31" width="408" height="30" as="geometry">
            <mxRectangle width="408" height="30" as="alternateBounds" />
          </mxGeometry>
        </mxCell>
        <mxCell id="5-AXXgtq8NwjFDfSAPvi-106" value="" style="shape=tableRow;horizontal=0;startSize=0;swimlaneHead=0;swimlaneBody=0;fillColor=none;collapsible=0;dropTarget=0;points=[[0,0.5],[1,0.5]];portConstraint=eastwest;top=0;left=0;right=0;bottom=0;" vertex="1" parent="5-AXXgtq8NwjFDfSAPvi-102">
          <mxGeometry y="150" width="439" height="30" as="geometry" />
        </mxCell>
        <mxCell id="5-AXXgtq8NwjFDfSAPvi-107" value="" style="shape=partialRectangle;connectable=0;fillColor=none;top=0;left=0;bottom=0;right=0;editable=1;overflow=hidden;whiteSpace=wrap;html=1;" vertex="1" parent="5-AXXgtq8NwjFDfSAPvi-106">
          <mxGeometry width="31" height="30" as="geometry">
            <mxRectangle width="31" height="30" as="alternateBounds" />
          </mxGeometry>
        </mxCell>
        <mxCell id="5-AXXgtq8NwjFDfSAPvi-108" value="&lt;span style=&quot;font-size: 14.6667px; text-align: center;&quot;&gt;Name = INT&lt;/span&gt;" style="shape=partialRectangle;connectable=0;fillColor=none;top=0;left=0;bottom=0;right=0;align=left;spacingLeft=6;overflow=hidden;whiteSpace=wrap;html=1;" vertex="1" parent="5-AXXgtq8NwjFDfSAPvi-106">
          <mxGeometry x="31" width="408" height="30" as="geometry">
            <mxRectangle width="408" height="30" as="alternateBounds" />
          </mxGeometry>
        </mxCell>
        <mxCell id="5-AXXgtq8NwjFDfSAPvi-109" value="" style="shape=tableRow;horizontal=0;startSize=0;swimlaneHead=0;swimlaneBody=0;fillColor=none;collapsible=0;dropTarget=0;points=[[0,0.5],[1,0.5]];portConstraint=eastwest;top=0;left=0;right=0;bottom=0;" vertex="1" parent="5-AXXgtq8NwjFDfSAPvi-102">
          <mxGeometry y="180" width="439" height="30" as="geometry" />
        </mxCell>
        <mxCell id="5-AXXgtq8NwjFDfSAPvi-110" value="" style="shape=partialRectangle;connectable=0;fillColor=none;top=0;left=0;bottom=0;right=0;editable=1;overflow=hidden;whiteSpace=wrap;html=1;" vertex="1" parent="5-AXXgtq8NwjFDfSAPvi-109">
          <mxGeometry width="31" height="30" as="geometry">
            <mxRectangle width="31" height="30" as="alternateBounds" />
          </mxGeometry>
        </mxCell>
        <mxCell id="5-AXXgtq8NwjFDfSAPvi-111" value="Rasse = INT" style="shape=partialRectangle;connectable=0;fillColor=none;top=0;left=0;bottom=0;right=0;align=left;spacingLeft=6;overflow=hidden;whiteSpace=wrap;html=1;" vertex="1" parent="5-AXXgtq8NwjFDfSAPvi-109">
          <mxGeometry x="31" width="408" height="30" as="geometry">
            <mxRectangle width="408" height="30" as="alternateBounds" />
          </mxGeometry>
        </mxCell>
        <mxCell id="5-AXXgtq8NwjFDfSAPvi-112" value="" style="shape=tableRow;horizontal=0;startSize=0;swimlaneHead=0;swimlaneBody=0;fillColor=none;collapsible=0;dropTarget=0;points=[[0,0.5],[1,0.5]];portConstraint=eastwest;top=0;left=0;right=0;bottom=0;" vertex="1" parent="5-AXXgtq8NwjFDfSAPvi-102">
          <mxGeometry y="210" width="439" height="30" as="geometry" />
        </mxCell>
        <mxCell id="5-AXXgtq8NwjFDfSAPvi-113" value="" style="shape=partialRectangle;connectable=0;fillColor=none;top=0;left=0;bottom=0;right=0;editable=1;overflow=hidden;whiteSpace=wrap;html=1;" vertex="1" parent="5-AXXgtq8NwjFDfSAPvi-112">
          <mxGeometry width="31" height="30" as="geometry">
            <mxRectangle width="31" height="30" as="alternateBounds" />
          </mxGeometry>
        </mxCell>
        <mxCell id="5-AXXgtq8NwjFDfSAPvi-114" value="&lt;span style=&quot;text-align: center;&quot;&gt;Stärke&amp;nbsp; = INT&lt;/span&gt;" style="shape=partialRectangle;connectable=0;fillColor=none;top=0;left=0;bottom=0;right=0;align=left;spacingLeft=6;overflow=hidden;whiteSpace=wrap;html=1;" vertex="1" parent="5-AXXgtq8NwjFDfSAPvi-112">
          <mxGeometry x="31" width="408" height="30" as="geometry">
            <mxRectangle width="408" height="30" as="alternateBounds" />
          </mxGeometry>
        </mxCell>
        <mxCell id="5-AXXgtq8NwjFDfSAPvi-133" value="" style="shape=tableRow;horizontal=0;startSize=0;swimlaneHead=0;swimlaneBody=0;fillColor=none;collapsible=0;dropTarget=0;points=[[0,0.5],[1,0.5]];portConstraint=eastwest;top=0;left=0;right=0;bottom=0;" vertex="1" parent="5-AXXgtq8NwjFDfSAPvi-102">
          <mxGeometry y="240" width="439" height="30" as="geometry" />
        </mxCell>
        <mxCell id="5-AXXgtq8NwjFDfSAPvi-134" value="" style="shape=partialRectangle;connectable=0;fillColor=none;top=0;left=0;bottom=0;right=0;editable=1;overflow=hidden;whiteSpace=wrap;html=1;" vertex="1" parent="5-AXXgtq8NwjFDfSAPvi-133">
          <mxGeometry width="31" height="30" as="geometry">
            <mxRectangle width="31" height="30" as="alternateBounds" />
          </mxGeometry>
        </mxCell>
        <mxCell id="5-AXXgtq8NwjFDfSAPvi-135" value="&lt;span style=&quot;text-align: center;&quot;&gt;Level = INT&lt;/span&gt;" style="shape=partialRectangle;connectable=0;fillColor=none;top=0;left=0;bottom=0;right=0;align=left;spacingLeft=6;overflow=hidden;whiteSpace=wrap;html=1;" vertex="1" parent="5-AXXgtq8NwjFDfSAPvi-133">
          <mxGeometry x="31" width="408" height="30" as="geometry">
            <mxRectangle width="408" height="30" as="alternateBounds" />
          </mxGeometry>
        </mxCell>
        <mxCell id="5-AXXgtq8NwjFDfSAPvi-136" value="" style="shape=tableRow;horizontal=0;startSize=0;swimlaneHead=0;swimlaneBody=0;fillColor=none;collapsible=0;dropTarget=0;points=[[0,0.5],[1,0.5]];portConstraint=eastwest;top=0;left=0;right=0;bottom=0;" vertex="1" parent="5-AXXgtq8NwjFDfSAPvi-102">
          <mxGeometry y="270" width="439" height="30" as="geometry" />
        </mxCell>
        <mxCell id="5-AXXgtq8NwjFDfSAPvi-137" value="" style="shape=partialRectangle;connectable=0;fillColor=none;top=0;left=0;bottom=0;right=0;editable=1;overflow=hidden;whiteSpace=wrap;html=1;" vertex="1" parent="5-AXXgtq8NwjFDfSAPvi-136">
          <mxGeometry width="31" height="30" as="geometry">
            <mxRectangle width="31" height="30" as="alternateBounds" />
          </mxGeometry>
        </mxCell>
        <mxCell id="5-AXXgtq8NwjFDfSAPvi-138" value="Aktuelle HP = INT" style="shape=partialRectangle;connectable=0;fillColor=none;top=0;left=0;bottom=0;right=0;align=left;spacingLeft=6;overflow=hidden;whiteSpace=wrap;html=1;" vertex="1" parent="5-AXXgtq8NwjFDfSAPvi-136">
          <mxGeometry x="31" width="408" height="30" as="geometry">
            <mxRectangle width="408" height="30" as="alternateBounds" />
          </mxGeometry>
        </mxCell>
        <mxCell id="5-AXXgtq8NwjFDfSAPvi-139" value="" style="shape=tableRow;horizontal=0;startSize=0;swimlaneHead=0;swimlaneBody=0;fillColor=none;collapsible=0;dropTarget=0;points=[[0,0.5],[1,0.5]];portConstraint=eastwest;top=0;left=0;right=0;bottom=0;" vertex="1" parent="5-AXXgtq8NwjFDfSAPvi-102">
          <mxGeometry y="300" width="439" height="30" as="geometry" />
        </mxCell>
        <mxCell id="5-AXXgtq8NwjFDfSAPvi-140" value="" style="shape=partialRectangle;connectable=0;fillColor=none;top=0;left=0;bottom=0;right=0;editable=1;overflow=hidden;whiteSpace=wrap;html=1;" vertex="1" parent="5-AXXgtq8NwjFDfSAPvi-139">
          <mxGeometry width="31" height="30" as="geometry">
            <mxRectangle width="31" height="30" as="alternateBounds" />
          </mxGeometry>
        </mxCell>
        <mxCell id="5-AXXgtq8NwjFDfSAPvi-141" value="Max HP = INT" style="shape=partialRectangle;connectable=0;fillColor=none;top=0;left=0;bottom=0;right=0;align=left;spacingLeft=6;overflow=hidden;whiteSpace=wrap;html=1;" vertex="1" parent="5-AXXgtq8NwjFDfSAPvi-139">
          <mxGeometry x="31" width="408" height="30" as="geometry">
            <mxRectangle width="408" height="30" as="alternateBounds" />
          </mxGeometry>
        </mxCell>
        <mxCell id="5-AXXgtq8NwjFDfSAPvi-142" value="" style="shape=tableRow;horizontal=0;startSize=0;swimlaneHead=0;swimlaneBody=0;fillColor=none;collapsible=0;dropTarget=0;points=[[0,0.5],[1,0.5]];portConstraint=eastwest;top=0;left=0;right=0;bottom=0;" vertex="1" parent="5-AXXgtq8NwjFDfSAPvi-102">
          <mxGeometry y="330" width="439" height="30" as="geometry" />
        </mxCell>
        <mxCell id="5-AXXgtq8NwjFDfSAPvi-143" value="" style="shape=partialRectangle;connectable=0;fillColor=none;top=0;left=0;bottom=0;right=0;editable=1;overflow=hidden;whiteSpace=wrap;html=1;" vertex="1" parent="5-AXXgtq8NwjFDfSAPvi-142">
          <mxGeometry width="31" height="30" as="geometry">
            <mxRectangle width="31" height="30" as="alternateBounds" />
          </mxGeometry>
        </mxCell>
        <mxCell id="5-AXXgtq8NwjFDfSAPvi-144" value="Erfahrungspunkte = INT" style="shape=partialRectangle;connectable=0;fillColor=none;top=0;left=0;bottom=0;right=0;align=left;spacingLeft=6;overflow=hidden;whiteSpace=wrap;html=1;" vertex="1" parent="5-AXXgtq8NwjFDfSAPvi-142">
          <mxGeometry x="31" width="408" height="30" as="geometry">
            <mxRectangle width="408" height="30" as="alternateBounds" />
          </mxGeometry>
        </mxCell>
        <mxCell id="5-AXXgtq8NwjFDfSAPvi-145" value="" style="shape=tableRow;horizontal=0;startSize=0;swimlaneHead=0;swimlaneBody=0;fillColor=none;collapsible=0;dropTarget=0;points=[[0,0.5],[1,0.5]];portConstraint=eastwest;top=0;left=0;right=0;bottom=0;" vertex="1" parent="5-AXXgtq8NwjFDfSAPvi-102">
          <mxGeometry y="360" width="439" height="30" as="geometry" />
        </mxCell>
        <mxCell id="5-AXXgtq8NwjFDfSAPvi-146" value="" style="shape=partialRectangle;connectable=0;fillColor=none;top=0;left=0;bottom=0;right=0;editable=1;overflow=hidden;whiteSpace=wrap;html=1;" vertex="1" parent="5-AXXgtq8NwjFDfSAPvi-145">
          <mxGeometry width="31" height="30" as="geometry">
            <mxRectangle width="31" height="30" as="alternateBounds" />
          </mxGeometry>
        </mxCell>
        <mxCell id="5-AXXgtq8NwjFDfSAPvi-147" value="Erstellungsdatum = TIMESTAMP DEFAULT CURRENT_TIMESTAMP" style="shape=partialRectangle;connectable=0;fillColor=none;top=0;left=0;bottom=0;right=0;align=left;spacingLeft=6;overflow=hidden;whiteSpace=wrap;html=1;" vertex="1" parent="5-AXXgtq8NwjFDfSAPvi-145">
          <mxGeometry x="31" width="408" height="30" as="geometry">
            <mxRectangle width="408" height="30" as="alternateBounds" />
          </mxGeometry>
        </mxCell>
        <mxCell id="5-AXXgtq8NwjFDfSAPvi-121" value="" style="shape=tableRow;horizontal=0;startSize=0;swimlaneHead=0;swimlaneBody=0;fillColor=none;collapsible=0;dropTarget=0;points=[[0,0.5],[1,0.5]];portConstraint=eastwest;top=0;left=0;right=0;bottom=0;" vertex="1" parent="1">
          <mxGeometry x="230" y="-260" width="240" height="30" as="geometry" />
        </mxCell>
        <mxCell id="5-AXXgtq8NwjFDfSAPvi-159" value="Table" style="shape=table;startSize=30;container=1;collapsible=1;childLayout=tableLayout;fixedRows=1;rowLines=0;fontStyle=1;align=center;resizeLast=1;html=1;strokeColor=default;verticalAlign=middle;fontFamily=Helvetica;fontSize=12;fontColor=default;fillColor=none;points=[[0,0,0,0,0],[0,0.25,0,0,0],[0,0.5,0,0,0],[0,0.75,0,0,0],[0,1,0,0,0],[0.25,0,0,0,0],[0.25,1,0,0,0],[0.5,0,0,0,0],[0.5,1,0,0,0],[0.75,0,0,0,0],[0.75,1,0,0,0],[1,0,0,0,0],[1,0.25,0,0,0],[1,0.33,0,0,0],[1,0.5,0,0,0],[1,0.67,0,0,0],[1,0.75,0,0,0],[1,1,0,0,0]];" vertex="1" parent="1">
          <mxGeometry x="420" y="-370" width="270" height="210" as="geometry" />
        </mxCell>
        <mxCell id="5-AXXgtq8NwjFDfSAPvi-160" value="" style="shape=tableRow;horizontal=0;startSize=0;swimlaneHead=0;swimlaneBody=0;fillColor=none;collapsible=0;dropTarget=0;points=[[0,0.5],[1,0.5]];portConstraint=eastwest;top=0;left=0;right=0;bottom=1;strokeColor=default;align=center;verticalAlign=middle;fontFamily=Helvetica;fontSize=12;fontColor=default;" vertex="1" parent="5-AXXgtq8NwjFDfSAPvi-159">
          <mxGeometry y="30" width="270" height="30" as="geometry" />
        </mxCell>
        <mxCell id="5-AXXgtq8NwjFDfSAPvi-161" value="PK" style="shape=partialRectangle;connectable=0;fillColor=none;top=0;left=0;bottom=0;right=0;fontStyle=1;overflow=hidden;whiteSpace=wrap;html=1;strokeColor=default;align=center;verticalAlign=middle;fontFamily=Helvetica;fontSize=12;fontColor=default;" vertex="1" parent="5-AXXgtq8NwjFDfSAPvi-160">
          <mxGeometry width="30" height="30" as="geometry">
            <mxRectangle width="30" height="30" as="alternateBounds" />
          </mxGeometry>
        </mxCell>
        <mxCell id="5-AXXgtq8NwjFDfSAPvi-162" value="Rüstung ID = INT = AUTO_INCREMENT" style="shape=partialRectangle;connectable=0;fillColor=none;top=0;left=0;bottom=0;right=0;align=left;spacingLeft=6;fontStyle=5;overflow=hidden;whiteSpace=wrap;html=1;strokeColor=default;verticalAlign=middle;fontFamily=Helvetica;fontSize=12;fontColor=default;" vertex="1" parent="5-AXXgtq8NwjFDfSAPvi-160">
          <mxGeometry x="30" width="240" height="30" as="geometry">
            <mxRectangle width="240" height="30" as="alternateBounds" />
          </mxGeometry>
        </mxCell>
        <mxCell id="5-AXXgtq8NwjFDfSAPvi-163" value="" style="shape=tableRow;horizontal=0;startSize=0;swimlaneHead=0;swimlaneBody=0;fillColor=none;collapsible=0;dropTarget=0;points=[[0,0.5],[1,0.5]];portConstraint=eastwest;top=0;left=0;right=0;bottom=0;strokeColor=default;align=center;verticalAlign=middle;fontFamily=Helvetica;fontSize=12;fontColor=default;" vertex="1" parent="5-AXXgtq8NwjFDfSAPvi-159">
          <mxGeometry y="60" width="270" height="30" as="geometry" />
        </mxCell>
        <mxCell id="5-AXXgtq8NwjFDfSAPvi-164" value="" style="shape=partialRectangle;connectable=0;fillColor=none;top=0;left=0;bottom=0;right=0;editable=1;overflow=hidden;whiteSpace=wrap;html=1;strokeColor=default;align=center;verticalAlign=middle;fontFamily=Helvetica;fontSize=12;fontColor=default;" vertex="1" parent="5-AXXgtq8NwjFDfSAPvi-163">
          <mxGeometry width="30" height="30" as="geometry">
            <mxRectangle width="30" height="30" as="alternateBounds" />
          </mxGeometry>
        </mxCell>
        <mxCell id="5-AXXgtq8NwjFDfSAPvi-165" value="Rüstung = VARCHAR(50) NOT NULL" style="shape=partialRectangle;connectable=0;fillColor=none;top=0;left=0;bottom=0;right=0;align=left;spacingLeft=6;overflow=hidden;whiteSpace=wrap;html=1;strokeColor=default;verticalAlign=middle;fontFamily=Helvetica;fontSize=12;fontColor=default;" vertex="1" parent="5-AXXgtq8NwjFDfSAPvi-163">
          <mxGeometry x="30" width="240" height="30" as="geometry">
            <mxRectangle width="240" height="30" as="alternateBounds" />
          </mxGeometry>
        </mxCell>
        <mxCell id="5-AXXgtq8NwjFDfSAPvi-166" value="" style="shape=tableRow;horizontal=0;startSize=0;swimlaneHead=0;swimlaneBody=0;fillColor=none;collapsible=0;dropTarget=0;points=[[0,0.5],[1,0.5]];portConstraint=eastwest;top=0;left=0;right=0;bottom=0;strokeColor=default;align=center;verticalAlign=middle;fontFamily=Helvetica;fontSize=12;fontColor=default;" vertex="1" parent="5-AXXgtq8NwjFDfSAPvi-159">
          <mxGeometry y="90" width="270" height="30" as="geometry" />
        </mxCell>
        <mxCell id="5-AXXgtq8NwjFDfSAPvi-167" value="" style="shape=partialRectangle;connectable=0;fillColor=none;top=0;left=0;bottom=0;right=0;editable=1;overflow=hidden;whiteSpace=wrap;html=1;strokeColor=default;align=center;verticalAlign=middle;fontFamily=Helvetica;fontSize=12;fontColor=default;" vertex="1" parent="5-AXXgtq8NwjFDfSAPvi-166">
          <mxGeometry width="30" height="30" as="geometry">
            <mxRectangle width="30" height="30" as="alternateBounds" />
          </mxGeometry>
        </mxCell>
        <mxCell id="5-AXXgtq8NwjFDfSAPvi-168" value="Row 2" style="shape=partialRectangle;connectable=0;fillColor=none;top=0;left=0;bottom=0;right=0;align=left;spacingLeft=6;overflow=hidden;whiteSpace=wrap;html=1;strokeColor=default;verticalAlign=middle;fontFamily=Helvetica;fontSize=12;fontColor=default;" vertex="1" parent="5-AXXgtq8NwjFDfSAPvi-166">
          <mxGeometry x="30" width="240" height="30" as="geometry">
            <mxRectangle width="240" height="30" as="alternateBounds" />
          </mxGeometry>
        </mxCell>
        <mxCell id="5-AXXgtq8NwjFDfSAPvi-169" value="" style="shape=tableRow;horizontal=0;startSize=0;swimlaneHead=0;swimlaneBody=0;fillColor=none;collapsible=0;dropTarget=0;points=[[0,0.5],[1,0.5]];portConstraint=eastwest;top=0;left=0;right=0;bottom=0;strokeColor=default;align=center;verticalAlign=middle;fontFamily=Helvetica;fontSize=12;fontColor=default;" vertex="1" parent="5-AXXgtq8NwjFDfSAPvi-159">
          <mxGeometry y="120" width="270" height="30" as="geometry" />
        </mxCell>
        <mxCell id="5-AXXgtq8NwjFDfSAPvi-170" value="" style="shape=partialRectangle;connectable=0;fillColor=none;top=0;left=0;bottom=0;right=0;editable=1;overflow=hidden;whiteSpace=wrap;html=1;strokeColor=default;align=center;verticalAlign=middle;fontFamily=Helvetica;fontSize=12;fontColor=default;" vertex="1" parent="5-AXXgtq8NwjFDfSAPvi-169">
          <mxGeometry width="30" height="30" as="geometry">
            <mxRectangle width="30" height="30" as="alternateBounds" />
          </mxGeometry>
        </mxCell>
        <mxCell id="5-AXXgtq8NwjFDfSAPvi-171" value="Row 3" style="shape=partialRectangle;connectable=0;fillColor=none;top=0;left=0;bottom=0;right=0;align=left;spacingLeft=6;overflow=hidden;whiteSpace=wrap;html=1;strokeColor=default;verticalAlign=middle;fontFamily=Helvetica;fontSize=12;fontColor=default;" vertex="1" parent="5-AXXgtq8NwjFDfSAPvi-169">
          <mxGeometry x="30" width="240" height="30" as="geometry">
            <mxRectangle width="240" height="30" as="alternateBounds" />
          </mxGeometry>
        </mxCell>
        <mxCell id="5-AXXgtq8NwjFDfSAPvi-172" value="" style="shape=tableRow;horizontal=0;startSize=0;swimlaneHead=0;swimlaneBody=0;fillColor=none;collapsible=0;dropTarget=0;points=[[0,0.5],[1,0.5]];portConstraint=eastwest;top=0;left=0;right=0;bottom=0;strokeColor=default;align=center;verticalAlign=middle;fontFamily=Helvetica;fontSize=12;fontColor=default;" vertex="1" parent="5-AXXgtq8NwjFDfSAPvi-159">
          <mxGeometry y="150" width="270" height="30" as="geometry" />
        </mxCell>
        <mxCell id="5-AXXgtq8NwjFDfSAPvi-173" value="" style="shape=partialRectangle;connectable=0;fillColor=none;top=0;left=0;bottom=0;right=0;editable=1;overflow=hidden;whiteSpace=wrap;html=1;strokeColor=default;align=center;verticalAlign=middle;fontFamily=Helvetica;fontSize=12;fontColor=default;" vertex="1" parent="5-AXXgtq8NwjFDfSAPvi-172">
          <mxGeometry width="30" height="30" as="geometry">
            <mxRectangle width="30" height="30" as="alternateBounds" />
          </mxGeometry>
        </mxCell>
        <mxCell id="5-AXXgtq8NwjFDfSAPvi-174" value="Row 3" style="shape=partialRectangle;connectable=0;fillColor=none;top=0;left=0;bottom=0;right=0;align=left;spacingLeft=6;overflow=hidden;whiteSpace=wrap;html=1;strokeColor=default;verticalAlign=middle;fontFamily=Helvetica;fontSize=12;fontColor=default;" vertex="1" parent="5-AXXgtq8NwjFDfSAPvi-172">
          <mxGeometry x="30" width="240" height="30" as="geometry">
            <mxRectangle width="240" height="30" as="alternateBounds" />
          </mxGeometry>
        </mxCell>
        <mxCell id="5-AXXgtq8NwjFDfSAPvi-175" value="" style="shape=tableRow;horizontal=0;startSize=0;swimlaneHead=0;swimlaneBody=0;fillColor=none;collapsible=0;dropTarget=0;points=[[0,0.5],[1,0.5]];portConstraint=eastwest;top=0;left=0;right=0;bottom=0;strokeColor=default;align=center;verticalAlign=middle;fontFamily=Helvetica;fontSize=12;fontColor=default;" vertex="1" parent="5-AXXgtq8NwjFDfSAPvi-159">
          <mxGeometry y="180" width="270" height="30" as="geometry" />
        </mxCell>
        <mxCell id="5-AXXgtq8NwjFDfSAPvi-176" value="" style="shape=partialRectangle;connectable=0;fillColor=none;top=0;left=0;bottom=0;right=0;editable=1;overflow=hidden;whiteSpace=wrap;html=1;strokeColor=default;align=center;verticalAlign=middle;fontFamily=Helvetica;fontSize=12;fontColor=default;" vertex="1" parent="5-AXXgtq8NwjFDfSAPvi-175">
          <mxGeometry width="30" height="30" as="geometry">
            <mxRectangle width="30" height="30" as="alternateBounds" />
          </mxGeometry>
        </mxCell>
        <mxCell id="5-AXXgtq8NwjFDfSAPvi-177" value="Row 3" style="shape=partialRectangle;connectable=0;fillColor=none;top=0;left=0;bottom=0;right=0;align=left;spacingLeft=6;overflow=hidden;whiteSpace=wrap;html=1;strokeColor=default;verticalAlign=middle;fontFamily=Helvetica;fontSize=12;fontColor=default;" vertex="1" parent="5-AXXgtq8NwjFDfSAPvi-175">
          <mxGeometry x="30" width="240" height="30" as="geometry">
            <mxRectangle width="240" height="30" as="alternateBounds" />
          </mxGeometry>
        </mxCell>
      </root>
    </mxGraphModel>
  </diagram>
</mxfile>
